<svg width="50" height="50" viewBox="0 0 50 50" fill="none" xmlns="http://www.w3.org/2000/svg">
<path d="M25.0001 4.16669C13.4938 4.16669 4.16675 13.4938 4.16675 25C4.16675 36.5063 13.4938 45.8334 25.0001 45.8334C36.5063 45.8334 45.8334 36.5063 45.8334 25C45.8334 13.4938 36.5063 4.16669 25.0001 4.16669Z" stroke="black" stroke-width="1.5" stroke-linecap="round" stroke-linejoin="round"/>
<path d="M16.6667 44.1V29.1667L25.0001 14.5834L33.3334 29.1667V44.1" stroke="black" stroke-width="1.5" stroke-linecap="round" stroke-linejoin="round"/>
<path d="M16.6667 29.1667C16.6667 29.1667 19.0147 31.25 20.8334 31.25C22.6522 31.25 25.0001 29.1667 25.0001 29.1667C25.0001 29.1667 27.348 31.25 29.1667 31.25C30.9855 31.25 33.3334 29.1667 33.3334 29.1667" stroke="black" stroke-width="1.5" stroke-linecap="round" stroke-linejoin="round"/>
</svg>
