<svg width="50" height="50" viewBox="0 0 50 50" fill="none" xmlns="http://www.w3.org/2000/svg">
<path d="M11.1042 6.8167C12.404 6.35315 13.8088 6.26802 15.1551 6.57118C16.5015 6.87435 17.7342 7.55336 18.7099 8.52932C19.6856 9.50528 20.3644 10.7381 20.6673 12.0845C20.9701 13.4309 20.8847 14.8357 20.4208 16.1354L43.0146 38.7292L38.5937 43.1479L16 20.5563C14.6999 21.0201 13.2949 21.1053 11.9482 20.8021C10.6016 20.4989 9.36867 19.8197 8.39283 18.8434C7.41699 17.8671 6.73831 16.6339 6.43569 15.2871C6.13307 13.9403 6.21895 12.5353 6.68333 11.2354L11.3417 15.8959C11.931 16.4651 12.7204 16.7801 13.5398 16.773C14.3592 16.7659 15.1429 16.4372 15.7223 15.8578C16.3017 15.2784 16.6304 14.4946 16.6375 13.6752C16.6446 12.8559 16.3297 12.0665 15.7604 11.4771L11.1042 6.8167ZM32.7021 10.7396L39.3312 7.05628L42.2771 10.0042L38.5937 16.6313L34.9104 17.3688L30.4937 21.7875L27.5458 18.8417L31.9646 14.4229L32.7021 10.7396ZM17.9708 26.9438L22.3896 31.3646L12.0771 41.6771C11.5084 42.2405 10.7452 42.5641 9.94496 42.5813C9.14468 42.5985 8.3683 42.308 7.77594 41.7696C7.18358 41.2312 6.82041 40.486 6.76131 39.6877C6.70222 38.8895 6.95171 38.0989 7.45833 37.4792L7.66042 37.2563L17.9708 26.9438Z" fill="black"/>
</svg>
