<svg width="50" height="50" viewBox="0 0 50 50" fill="none" xmlns="http://www.w3.org/2000/svg">
<path d="M18.75 22.917L22.917 27.083L31.25 18.75" stroke="#344054" stroke-width="2" stroke-linecap="round" stroke-linejoin="round"/>
<path d="M25 43.75L26.833 42.958C30.6763 41.3087 33.9951 38.6393 36.4299 35.2389C38.8647 31.8385 40.3227 27.8367 40.646 23.667L41.542 12.167C41.5566 11.6907 41.4072 11.2239 41.1189 10.8446C40.8306 10.4652 40.4208 10.1964 39.958 10.083L25 6.25L10.042 10C9.57937 10.1134 9.16967 10.3821 8.88137 10.7612C8.59306 11.1403 8.44361 11.6069 8.45798 12.083L9.35398 23.583C9.67707 27.7529 11.135 31.7549 13.5698 35.1555C16.0046 38.5561 19.3235 41.2257 23.167 42.875L25 43.75Z" stroke="#306CFE" stroke-width="2" stroke-linecap="round" stroke-linejoin="round"/>
</svg>
