<svg width="32" height="32" viewBox="0 0 32 32" fill="none" xmlns="http://www.w3.org/2000/svg">
<path d="M9.33341 17.3334H18.6667C19.0445 17.3334 19.3614 17.2054 19.6174 16.9494C19.8734 16.6934 20.001 16.3769 20.0001 16C19.9992 15.6232 19.8712 15.3067 19.6161 15.0507C19.361 14.7947 19.0445 14.6667 18.6667 14.6667H9.33341C8.95564 14.6667 8.63919 14.7947 8.38408 15.0507C8.12897 15.3067 8.00097 15.6232 8.00008 16C7.99919 16.3769 8.12719 16.6938 8.38408 16.9507C8.64097 17.2076 8.95741 17.3352 9.33341 17.3334ZM9.33341 13.3334H18.6667C19.0445 13.3334 19.3614 13.2054 19.6174 12.9494C19.8734 12.6934 20.001 12.3769 20.0001 12C19.9992 11.6232 19.8712 11.3067 19.6161 11.0507C19.361 10.7947 19.0445 10.6667 18.6667 10.6667H9.33341C8.95564 10.6667 8.63919 10.7947 8.38408 11.0507C8.12897 11.3067 8.00097 11.6232 8.00008 12C7.99919 12.3769 8.12719 12.6938 8.38408 12.9507C8.64097 13.2076 8.95741 13.3352 9.33341 13.3334ZM5.33341 26.6667C4.60008 26.6667 3.97253 26.4058 3.45075 25.884C2.92897 25.3623 2.66764 24.7343 2.66675 24V8.00004C2.66675 7.26671 2.92808 6.63915 3.45075 6.11737C3.97341 5.5956 4.60097 5.33426 5.33341 5.33337H26.6667C27.4001 5.33337 28.0281 5.59471 28.5507 6.11737C29.0734 6.64004 29.3343 7.2676 29.3334 8.00004V24C29.3334 24.7334 29.0725 25.3614 28.5507 25.884C28.029 26.4067 27.401 26.6676 26.6667 26.6667H5.33341Z" fill="black"/>
</svg>
