<svg width="32" height="32" viewBox="0 0 32 32" fill="none" xmlns="http://www.w3.org/2000/svg">
<path d="M29.5 10.5H2.5C2.10218 10.5 1.72064 10.342 1.43934 10.0607C1.15804 9.77936 1 9.39782 1 9C1 8.60218 1.15804 8.22064 1.43934 7.93934C1.72064 7.65804 2.10218 7.5 2.5 7.5H29.5C29.8978 7.5 30.2794 7.65804 30.5607 7.93934C30.842 8.22064 31 8.60218 31 9C31 9.39782 30.842 9.77936 30.5607 10.0607C30.2794 10.342 29.8978 10.5 29.5 10.5ZM24.5 17.5H7.5C7.10218 17.5 6.72064 17.342 6.43934 17.0607C6.15804 16.7794 6 16.3978 6 16C6 15.6022 6.15804 15.2206 6.43934 14.9393C6.72064 14.658 7.10218 14.5 7.5 14.5H24.5C24.8978 14.5 25.2794 14.658 25.5607 14.9393C25.842 15.2206 26 15.6022 26 16C26 16.3978 25.842 16.7794 25.5607 17.0607C25.2794 17.342 24.8978 17.5 24.5 17.5ZM18.5 24.5H13.5C13.1022 24.5 12.7206 24.342 12.4393 24.0607C12.158 23.7794 12 23.3978 12 23C12 22.6022 12.158 22.2206 12.4393 21.9393C12.7206 21.658 13.1022 21.5 13.5 21.5H18.5C18.8978 21.5 19.2794 21.658 19.5607 21.9393C19.842 22.2206 20 22.6022 20 23C20 23.3978 19.842 23.7794 19.5607 24.0607C19.2794 24.342 18.8978 24.5 18.5 24.5Z" fill="black"/>
</svg>
