<svg width="24" height="24" viewBox="0 0 24 24" fill="none" xmlns="http://www.w3.org/2000/svg">
<path fill-rule="evenodd" clip-rule="evenodd" d="M19.2849 12.645C19.992 11.9268 20.3848 10.9571 20.3769 9.94931C20.369 8.94149 19.9611 7.97808 19.2429 7.27101C18.8873 6.92091 18.4662 6.64427 18.0037 6.45691C17.5412 6.26955 17.0463 6.17512 16.5472 6.17902C15.5394 6.18689 14.576 6.5948 13.8689 7.31301C13.6769 7.50501 13.4329 7.74068 13.1369 8.02001L12.3139 8.79501L11.4909 8.02001C11.1943 7.74001 10.9499 7.50434 10.7579 7.31301C10.0453 6.60038 9.07875 6.20002 8.07093 6.20002C7.06311 6.20002 6.09657 6.60038 5.38393 7.31301C3.91593 8.78201 3.89893 11.157 5.32993 12.633L12.3139 19.617L19.2849 12.645ZM4.53493 6.46501C4.99924 6.00058 5.5505 5.63216 6.15721 5.38081C6.76393 5.12945 7.41421 5.00008 8.07093 5.00008C8.72765 5.00008 9.37794 5.12945 9.98466 5.38081C10.5914 5.63216 11.1426 6.00058 11.6069 6.46501C11.7889 6.64768 12.0246 6.87501 12.3139 7.14701C12.6019 6.87501 12.8376 6.64734 13.0209 6.46401C13.9514 5.51918 15.2192 4.98269 16.5452 4.97256C17.8713 4.96243 19.1471 5.4795 20.0919 6.41001C21.0368 7.34052 21.5733 8.60826 21.5834 9.93433C21.5935 11.2604 21.0764 12.5362 20.1459 13.481L13.0209 20.607C12.8334 20.7945 12.5791 20.8998 12.3139 20.8998C12.0488 20.8998 11.7945 20.7945 11.6069 20.607L4.47993 13.48C3.56597 12.5374 3.05944 11.2731 3.06973 9.96024C3.08002 8.64734 3.60631 7.39117 4.53493 6.46301V6.46501Z" fill="black"/>
</svg>
