<svg width="32" height="32" viewBox="0 0 32 32" fill="none" xmlns="http://www.w3.org/2000/svg">
<path fill-rule="evenodd" clip-rule="evenodd" d="M14.0001 2.66663C12.1929 2.66678 10.4119 3.09911 8.80577 3.92755C7.19963 4.75599 5.81488 5.95652 4.76708 7.42896C3.71927 8.90141 3.03877 10.6031 2.78237 12.392C2.52597 14.1809 2.70109 16.0053 3.29313 17.7127C3.88517 19.4202 4.87696 20.9614 6.18574 22.2076C7.49453 23.4538 9.08237 24.369 10.8168 24.8768C12.5512 25.3845 14.3819 25.4702 16.1561 25.1265C17.9304 24.7829 19.5967 24.0199 21.0161 22.9013L25.8854 27.7706C26.1369 28.0135 26.4737 28.1479 26.8233 28.1449C27.1729 28.1418 27.5073 28.0016 27.7545 27.7544C28.0017 27.5072 28.142 27.1728 28.145 26.8232C28.148 26.4736 28.0136 26.1368 27.7708 25.8853L22.9014 21.016C24.2188 19.3448 25.039 17.3365 25.2682 15.2209C25.4975 13.1054 25.1265 10.968 24.1977 9.05342C23.269 7.13885 21.8199 5.52443 20.0165 4.39493C18.2131 3.26543 16.128 2.66648 14.0001 2.66663ZM5.33343 14C5.33343 11.7014 6.24652 9.49701 7.87184 7.8717C9.49715 6.24638 11.7016 5.33329 14.0001 5.33329C16.2986 5.33329 18.503 6.24638 20.1284 7.8717C21.7537 9.49701 22.6668 11.7014 22.6668 14C22.6668 16.2985 21.7537 18.5029 20.1284 20.1282C18.503 21.7535 16.2986 22.6666 14.0001 22.6666C11.7016 22.6666 9.49715 21.7535 7.87184 20.1282C6.24652 18.5029 5.33343 16.2985 5.33343 14Z" fill="white"/>
</svg>
