<svg width="32" height="32" viewBox="0 0 32 32" fill="none" xmlns="http://www.w3.org/2000/svg">
<g clip-path="url(#clip0_23_123)">
<path d="M14 8V10H8V8H14ZM8 14V12H14V14H8ZM8 18V16H12V18H8ZM6 8V10H4V8H6ZM6 12V14H4V12H6ZM4 18V16H6V18H4ZM2 2V30H12V32H0V0H17.4219L26 8.57812V12H24V10H16V2H2ZM18 3.42188V8H22.5781L18 3.42188ZM28 16H32V32H14V16H18V14H20V16H26V14H28V16ZM30 30V22H16V30H30ZM30 20V18H16V20H30Z" fill="white"/>
</g>
<defs>
<clipPath id="clip0_23_123">
<rect width="32" height="32" fill="white"/>
</clipPath>
</defs>
</svg>
