<svg width="32" height="32" viewBox="0 0 32 32" fill="none" xmlns="http://www.w3.org/2000/svg">
<path fill-rule="evenodd" clip-rule="evenodd" d="M13.9999 2.66666C12.1926 2.66681 10.4117 3.09914 8.80553 3.92758C7.19938 4.75602 5.81464 5.95655 4.76683 7.42899C3.71902 8.90144 3.03853 10.6031 2.78213 12.392C2.52573 14.181 2.70085 16.0053 3.29289 17.7128C3.88493 19.4202 4.87671 20.9614 6.1855 22.2076C7.49429 23.4539 9.08212 24.369 10.8165 24.8768C12.5509 25.3846 14.3816 25.4702 16.1559 25.1265C17.9301 24.7829 19.5964 24.0199 21.0159 22.9013L25.8852 27.7707C26.1367 28.0135 26.4735 28.1479 26.8231 28.1449C27.1726 28.1418 27.5071 28.0016 27.7543 27.7544C28.0015 27.5072 28.1417 27.1728 28.1447 26.8232C28.1478 26.4736 28.0134 26.1368 27.7705 25.8853L22.9012 21.016C24.2185 19.3448 25.0387 17.3365 25.268 15.221C25.4972 13.1054 25.1262 10.968 24.1975 9.05345C23.2687 7.13888 21.8197 5.52446 20.0163 4.39496C18.2128 3.26547 16.1278 2.66651 13.9999 2.66666ZM5.33318 14C5.33318 11.7014 6.24628 9.49705 7.87159 7.87173C9.49691 6.24642 11.7013 5.33332 13.9999 5.33332C16.2984 5.33332 18.5028 6.24642 20.1281 7.87173C21.7534 9.49705 22.6665 11.7014 22.6665 14C22.6665 16.2985 21.7534 18.5029 20.1281 20.1282C18.5028 21.7536 16.2984 22.6667 13.9999 22.6667C11.7013 22.6667 9.49691 21.7536 7.87159 20.1282C6.24628 18.5029 5.33318 16.2985 5.33318 14Z" fill="white"/>
</svg>
