<svg width="32" height="32" viewBox="0 0 32 32" fill="none" xmlns="http://www.w3.org/2000/svg">
<path d="M25.5308 3.96129C25.293 3.5675 24.9578 3.24154 24.5576 3.0148C24.1573 2.78805 23.7054 2.66815 23.2454 2.66663H8.75475C7.82408 2.66663 6.94808 3.16263 6.46942 3.96129L2.85741 9.97996C2.73273 10.1873 2.66682 10.4247 2.66675 10.6666C2.67207 11.9536 3.14607 13.1945 4.00008 14.1573V25.3333C4.00008 26.804 5.19608 28 6.66675 28H25.3334C26.8041 28 28.0001 26.804 28.0001 25.3333V14.1573C28.8541 13.1945 29.3281 11.9536 29.3334 10.6666C29.3333 10.4247 29.2674 10.1873 29.1428 9.97996L25.5308 3.96129ZM26.6454 11.0013C26.5639 11.6454 26.2503 12.2377 25.7633 12.667C25.2762 13.0963 24.6493 13.3332 24.0001 13.3333C22.5294 13.3333 21.3334 12.1373 21.3334 10.6666C21.3334 10.576 21.3001 10.496 21.2814 10.4106L21.3081 10.4053L20.2934 5.33329H23.2454L26.6454 11.0013ZM14.4254 5.33329H17.5734L18.6574 10.7533C18.6107 12.1826 17.4401 13.3333 16.0001 13.3333C14.5601 13.3333 13.3894 12.1826 13.3427 10.7533L14.4254 5.33329ZM8.75475 5.33329H11.7067L10.6934 10.4053L10.7201 10.4106C10.7001 10.496 10.6667 10.576 10.6667 10.6666C10.6667 12.1373 9.47075 13.3333 8.00008 13.3333C7.35084 13.3332 6.72393 13.0963 6.23691 12.667C5.74989 12.2377 5.43623 11.6454 5.35475 11.0013L8.75475 5.33329ZM13.3334 25.3333V21.3333H18.6667V25.3333H13.3334ZM21.3334 25.3333V21.3333C21.3334 19.8626 20.1374 18.6666 18.6667 18.6666H13.3334C11.8627 18.6666 10.6667 19.8626 10.6667 21.3333V25.3333H6.66675V15.8106C7.09475 15.9213 7.53608 16 8.00008 16C8.75703 15.9995 9.50521 15.8379 10.1949 15.526C10.8846 15.214 11.4999 14.7588 12.0001 14.1906C12.9774 15.3 14.4094 16 16.0001 16C17.5907 16 19.0227 15.3 20.0001 14.1906C20.5002 14.7588 21.1156 15.214 21.8053 15.526C22.495 15.8379 23.2431 15.9995 24.0001 16C24.4641 16 24.9054 15.9213 25.3334 15.8106V25.3333H21.3334Z" fill="white"/>
</svg>
